<?xml version="1.0" encoding="utf-8"?>
<!-- Generator: Adobe Illustrator 25.3.1, SVG Export Plug-In . SVG Version: 6.00 Build 0)  -->
<svg version="1.1" id="Layer_1" xmlns="http://www.w3.org/2000/svg" xmlns:xlink="http://www.w3.org/1999/xlink" x="0px" y="0px"
	 viewBox="0 0 256 256" style="enable-background:new 0 0 256 256;" xml:space="preserve">
<style type="text/css">
	.st0{fill:#F82C2C;}
	.st1{fill:#FFFFFF;}
	.st2{fill-rule:evenodd;clip-rule:evenodd;fill:#F82C2C;}
</style>
<rect class="st0" width="256" height="256"/>
<path class="st1" d="M13.5,64.7H243v126.9H13.5L13.5,64.7L13.5,64.7z"/>
<path class="st2" d="M225,173.6h-51.3v-6H225V173.6z"/>
<path class="st0" d="M80.7,161.6l-7.8-20.1H47.1l-7.8,20.1h-8.1l25.2-64.8h7.2l25.2,64.8H80.7z M70.5,134.3l-7.2-19.5l-3-9.6
	c-0.9,3.6-1.8,6.9-2.7,9.6l-7.2,19.5H70.5z"/>
<path class="st0" d="M148.8,161.6h-23.4v-4.8l7.5-1.8v-51.6l-7.5-1.8v-4.8h23.4v4.8l-7.5,1.8v51.9l7.5,1.8V161.6z"/>
</svg>
