<svg width="300" height="300" viewBox="0 0 300 300" fill="none" xmlns="http://www.w3.org/2000/svg">
<rect width="300" height="300" fill="white"/>
<path d="M202.349 129.141H278.859V171.423H202.349V129.141Z" fill="#F82C2C"/>
<path fill-rule="evenodd" clip-rule="evenodd" d="M272.819 165.383H255.705V163.369H272.819V165.383Z" fill="black"/>
<path d="M31.2936 141.875C28.9735 141.875 27.1498 142.652 25.8226 144.205C24.4954 145.759 23.8318 147.882 23.8318 150.576C23.8318 153.358 24.4757 155.506 25.7636 157.02C27.0515 158.524 28.885 159.276 31.2641 159.276C32.7978 159.276 34.5231 158.991 36.4402 158.421V160.781C35.5259 161.115 34.646 161.341 33.8006 161.459C32.9551 161.587 31.9818 161.651 30.8807 161.651C27.7052 161.651 25.2573 160.687 23.5368 158.76C21.8262 156.824 20.9709 154.086 20.9709 150.546C20.9709 148.324 21.3789 146.378 22.1949 144.707C23.0207 143.035 24.2152 141.747 25.7783 140.843C27.3513 139.939 29.1996 139.486 31.3231 139.486C33.6039 139.486 35.5898 139.909 37.2808 140.754L36.1895 143.055C34.4691 142.268 32.8371 141.875 31.2936 141.875Z" fill="black"/>
<path d="M52.0169 161.356V139.796H54.7303V158.937H64.1535V161.356H52.0169Z" fill="black"/>
<path d="M92.2502 161.356L89.6548 154.675H81.1016L78.5357 161.356H75.7928L84.2132 139.707H86.6612L95.0668 161.356H92.2502ZM88.8437 152.272L86.4252 145.739L85.3929 142.509C85.098 143.689 84.7883 144.766 84.4639 145.739L82.0159 152.272H88.8437Z" fill="black"/>
<path d="M121.143 155.59C121.143 157.467 120.465 158.947 119.108 160.028C117.751 161.11 115.864 161.651 113.445 161.651C110.889 161.651 108.913 161.311 107.517 160.633V158.038C108.431 158.431 109.429 158.741 110.511 158.967C111.602 159.193 112.62 159.306 113.563 159.306C115.176 159.306 116.39 158.996 117.206 158.377C118.022 157.757 118.43 156.907 118.43 155.826C118.43 155.108 118.282 154.518 117.987 154.056C117.692 153.594 117.196 153.161 116.498 152.758C115.81 152.355 114.763 151.898 113.357 151.387C111.361 150.659 109.936 149.804 109.08 148.821C108.225 147.828 107.797 146.55 107.797 144.987C107.797 143.306 108.427 141.969 109.685 140.976C110.953 139.983 112.62 139.486 114.684 139.486C116.837 139.486 118.818 139.889 120.627 140.696L119.786 143.025C117.938 142.259 116.218 141.875 114.625 141.875C113.347 141.875 112.344 142.151 111.617 142.701C110.899 143.252 110.54 144.023 110.54 145.016C110.54 145.724 110.678 146.314 110.953 146.786C111.238 147.248 111.691 147.671 112.31 148.054C112.939 148.438 113.922 148.875 115.259 149.367C116.862 149.956 118.056 150.532 118.843 151.092C119.629 151.643 120.209 152.282 120.583 153.009C120.956 153.727 121.143 154.587 121.143 155.59Z" fill="black"/>
<path d="M148.591 155.59C148.591 157.467 147.913 158.947 146.556 160.028C145.199 161.11 143.312 161.651 140.893 161.651C138.337 161.651 136.361 161.311 134.965 160.633V158.038C135.879 158.431 136.877 158.741 137.959 158.967C139.05 159.193 140.067 159.306 141.011 159.306C142.623 159.306 143.838 158.996 144.654 158.377C145.47 157.757 145.878 156.907 145.878 155.826C145.878 155.108 145.73 154.518 145.435 154.056C145.14 153.594 144.644 153.161 143.946 152.758C143.258 152.355 142.211 151.898 140.805 151.387C138.809 150.659 137.383 149.804 136.528 148.821C135.673 147.828 135.245 146.55 135.245 144.987C135.245 143.306 135.874 141.969 137.133 140.976C138.401 139.983 140.067 139.486 142.132 139.486C144.285 139.486 146.266 139.889 148.075 140.696L147.234 143.025C145.386 142.259 143.666 141.875 142.073 141.875C140.795 141.875 139.792 142.151 139.065 142.701C138.347 143.252 137.988 144.023 137.988 145.016C137.988 145.724 138.126 146.314 138.401 146.786C138.686 147.248 139.138 147.671 139.758 148.054C140.387 148.438 141.37 148.875 142.707 149.367C144.31 149.956 145.504 150.532 146.291 151.092C147.077 151.643 147.657 152.282 148.031 153.009C148.404 153.727 148.591 154.587 148.591 155.59Z" fill="black"/>
<path d="M169.875 161.356H162.088V159.793L164.625 159.217V141.964L162.088 141.359V139.796H169.875V141.359L167.338 141.964V159.217L169.875 159.793V161.356Z" fill="black"/>
<path d="M187.634 161.356H184.921V139.796H196.969V142.185H187.634V149.824H196.393V152.198H187.634V161.356Z" fill="black"/>
<path d="M224.711 161.356L222.116 154.675H213.563L210.997 161.356H208.254L216.674 139.707H219.122L227.528 161.356H224.711ZM221.305 152.272L218.886 145.739L217.854 142.509C217.559 143.689 217.25 144.766 216.925 145.739L214.477 152.272H221.305Z" fill="black"/>
<path d="M247.44 161.356H239.654V159.793L242.19 159.217V141.964L239.654 141.359V139.796H247.44V141.359L244.904 141.964V159.217L247.44 159.793V161.356Z" fill="black"/>
</svg>
