<svg width="20" height="15" viewBox="0 0 61 46" fill="none" xmlns="http://www.w3.org/2000/svg">
<path fill-rule="evenodd" clip-rule="evenodd" d="M3.51922 0C1.57575 0 0 1.5842 0 3.53846V42.4615C0 44.4158 1.57575 46 3.51922 46H57.4808C59.4243 46 61 44.4158 61 42.4615V3.53846C61 1.5842 59.4243 0 57.4808 0H3.51922ZM16.709 8.13836H21.4478L33.58 39.5542H27.524L24.0318 30.5144H13.9699L10.5169 39.5542H4.55669L16.709 8.13836ZM19.0894 16.7007C18.9846 17.041 18.878 17.3735 18.7702 17.698L18.7582 17.7344L15.9976 25.1398H22.1464L19.4013 17.6851L19.0894 16.7007ZM40.3164 8.13836H52.9056V12.1528L49.4929 12.9715V34.6306L52.9056 35.41V39.4338H40.3164V35.41L43.7291 34.6306V12.9715L40.3164 12.1528V8.13836Z" fill="#fff"/>
</svg>
